# xmcd CD database file
#
# Track frame offsets:
#	187
#	27360
#	43360
#	61370
#	79095
#	97767
#	115535
#	132507
#	159057
#	178615
#	197197
#	212810
#	230717
#	249075
#	266912
#
# Disc length: 3740 seconds
#
# Revision: 0
# Processed by: cddbd v1.5PL3 Copyright (c) Steve Scherf et al.
# Submitted via: CDex 1.51
#
DISCID=cb0e9a0f
DTITLE=bad boys inc - bad boys inc
DYEAR=2004
DGENRE=Pop
TTITLE0=chang your mind
TTITLE1=love here i come - remix
TTITLE2=i would give you forever
TTITLE3=more to this world
TTITLE4=whenever you need someone
TTITLE5=falling for you girl
TTITLE6=take me away(i'll follow you)-remix
TTITLE7=walking on air
TTITLE8=you're my destiny
TTITLE9=heaven knows
TTITLE10=honestly
TTITLE11=dream along with me tonight
TTITLE12=don't talk about love
TTITLE13=turn it around
TTITLE14=i've got the need
EXTD=YEAR: 2004
EXTT0=
EXTT1=
EXTT2=
EXTT3=
EXTT4=
EXTT5=
EXTT6=
EXTT7=
EXTT8=
EXTT9=
EXTT10=
EXTT11=
EXTT12=
EXTT13=
EXTT14=
PLAYORDER=
